<svg xmlns="http://www.w3.org/2000/svg" width="20" height="24" viewBox="0 0 20 24">
  <path id="s1" d="M9.561,23.9l-.115-.067-.418-.292-.506-.375c-.185-.139-.382-.294-.552-.428a31.187,31.187,0,0,1-3.2-2.923C1.607,16.468,0,13.167,0,10a10,10,0,1,1,20,0c0,3.168-1.606,6.469-4.774,9.813a31.051,31.051,0,0,1-3.2,2.923l-.373.292-.179.137-.506.375-.418.292a1,1,0,0,1-.994.067ZM2,10c0,2.638,1.422,5.477,4.226,8.438a29.012,29.012,0,0,0,2.991,2.733c.255.2.517.406.783.6l.249-.186c.176-.134.356-.274.534-.416a29.012,29.012,0,0,0,2.991-2.733C16.578,15.478,18,12.64,18,10A8,8,0,0,0,2,10Zm4,0a4,4,0,1,1,4,4A4,4,0,0,1,6,10Zm2,0a2,2,0,1,0,2-2A2,2,0,0,0,8,10Z" fill="#ff7d4a"/>
</svg>
