<svg xmlns="http://www.w3.org/2000/svg" width="21.888" height="21.927" viewBox="0 0 21.888 21.927">
  <path id="s2" d="M18.882,21.927c-.093,0-.188,0-.282-.013a20.862,20.862,0,0,1-9.058-3.22,20.609,20.609,0,0,1-6.3-6.3A20.906,20.906,0,0,1,.013,3.27,3,3,0,0,1,3,0h3l.179,0A3.008,3.008,0,0,1,8.989,2.589a11.856,11.856,0,0,0,.645,2.589,3.012,3.012,0,0,1-.679,3.169l-.717.716a15.109,15.109,0,0,0,4.586,4.586l.721-.721a3,3,0,0,1,3.163-.676,11.9,11.9,0,0,0,2.6.646,2.985,2.985,0,0,1,2.579,2.841v3.175a3,3,0,0,1-3.006,3.011ZM3,2a1,1,0,0,0-.737.326A.987.987,0,0,0,2,3.074a18.9,18.9,0,0,0,2.92,8.239,18.384,18.384,0,0,0,5.7,5.7A18.85,18.85,0,0,0,18.8,19.924c.03,0,.06,0,.09,0a1,1,0,0,0,1-1.008V15.895a.994.994,0,0,0-.851-1.013,13.906,13.906,0,0,1-3.031-.755,1,1,0,0,0-1.051.22l-1.27,1.27a1,1,0,0,1-1.2.163A17,17,0,0,1,6.109,9.4a1,1,0,0,1,.162-1.2L7.537,6.937A1.007,1.007,0,0,0,7.762,5.88a13.788,13.788,0,0,1-.753-3.02A1.006,1.006,0,0,0,6.017,2H3Z" transform="translate(0)" fill="#ff7d4a"/>
</svg>
